<?xml version="1.0" standalone="no"?>
<!DOCTYPE svg PUBLIC "-//W3C//DTD SVG 20010904//EN"
 "http://www.w3.org/TR/2001/REC-SVG-20010904/DTD/svg10.dtd">
<svg version="1.0" xmlns="http://www.w3.org/2000/svg"
 width="225.000000pt" height="225.000000pt" viewBox="0 0 225.000000 225.000000"
 preserveAspectRatio="xMidYMid meet">

<g transform="translate(0.000000,225.000000) scale(0.100000,-0.100000)"
fill="#000000" stroke="none">
<path d="M240 1481 c-5 -11 -10 -67 -10 -125 0 -87 -3 -106 -15 -106 -8 0 -17
-12 -21 -27 -12 -55 -12 -55 -37 -38 -34 22 -49 1 -45 -62 2 -36 7 -49 21 -51
12 -2 17 3 17 18 0 20 2 21 16 9 14 -11 19 -10 34 8 20 25 30 20 30 -14 0 -27
28 -43 40 -23 5 8 11 -10 15 -46 3 -32 7 -66 8 -74 1 -8 10 -16 20 -18 13 -3
17 4 17 31 0 59 25 71 149 75 122 5 121 6 121 -85 0 -53 8 -73 30 -73 11 0 21
12 28 33 9 30 10 29 11 -25 1 -69 8 -88 31 -88 14 0 21 20 39 108 32 152 28
143 57 132 14 -6 148 -10 299 -10 244 0 274 -2 279 -16 4 -9 5 -17 4 -18 -2
-1 -12 -6 -23 -12 -14 -8 -27 -8 -42 -1 -33 15 -50 3 -58 -40 l-7 -38 -19 36
c-18 37 -58 57 -82 42 -6 -4 -32 -7 -57 -8 l-45 0 -3 -51 c-2 -38 -9 -57 -24
-70 -19 -17 -21 -17 -15 -2 3 10 9 40 13 67 9 66 -1 71 -142 72 -97 2 -115
-11 -113 -76 1 -27 -1 -83 -4 -123 -7 -88 -3 -102 32 -102 31 0 51 31 51 79 0
24 5 30 31 35 46 9 49 8 49 -13 0 -10 10 -31 22 -46 18 -23 26 -26 60 -22 28
4 38 2 38 -9 0 -18 56 -19 67 -1 4 7 22 17 38 22 24 8 31 17 33 43 5 45 17 40
34 -15 18 -56 38 -64 79 -34 16 12 30 17 34 11 3 -6 17 -10 31 -10 19 0 28 8
39 32 l13 33 17 -42 c18 -44 41 -59 75 -48 29 9 25 46 -10 109 l-31 54 46 32
c44 31 54 51 35 80 -7 11 0 18 32 30 47 17 69 43 51 61 -8 8 -22 5 -53 -11
-40 -21 -42 -21 -68 -3 -26 17 -31 19 -59 22 -7 0 -13 8 -13 16 0 16 -29 10
-42 -9 -5 -7 -8 -5 -8 4 0 10 -3 11 -8 3 -4 -6 -5 40 -3 103 2 63 -1 114 -5
114 -5 0 -9 -44 -9 -98 0 -53 -3 -105 -7 -114 -7 -17 -29 -18 -272 -18 -166 0
-267 4 -271 10 -3 6 -21 10 -39 10 -32 0 -33 -2 -45 -55 -13 -59 -23 -67 -43
-35 -7 11 -18 20 -25 20 -6 0 -13 10 -15 23 -3 22 -5 22 -149 22 -145 0 -146
0 -157 24 -15 32 -9 37 20 17 12 -9 36 -15 53 -15 28 1 27 2 -8 9 -21 4 -48
17 -60 29 -19 19 -22 32 -22 112 0 87 1 92 28 115 15 13 38 24 50 25 12 0 16
3 9 6 -21 8 -72 -18 -86 -45 -12 -24 -14 -20 -25 53 -6 42 -14 81 -17 86 -9
15 -23 10 -34 -10z m25 -10 c3 -5 1 -12 -5 -16 -5 -3 -10 1 -10 9 0 18 6 21
15 7z m-39 -256 c1 -8 -2 -13 -7 -9 -5 3 -9 12 -9 21 0 19 13 9 16 -12z m-68
-53 c2 -7 -2 -10 -12 -6 -9 3 -16 11 -16 16 0 13 23 5 28 -10z m632 -88 c0 -2
-9 -4 -20 -4 -11 0 -20 4 -20 9 0 5 9 7 20 4 11 -3 20 -7 20 -9z m630 -10 c0
-8 -4 -12 -10 -9 -5 3 -10 10 -10 16 0 5 5 9 10 9 6 0 10 -7 10 -16z m-807 -1
c-7 -2 -21 -2 -30 0 -10 3 -4 5 12 5 17 0 24 -2 18 -5z m877 -62 c0 -4 -12
-14 -27 -22 -16 -7 -31 -15 -35 -17 -3 -2 -5 4 -4 13 4 27 66 52 66 26z m-527
-25 c21 -2 41 -6 44 -10 4 -4 2 -33 -5 -64 -19 -93 -17 -101 18 -67 26 25 30
36 30 82 0 48 2 53 23 53 29 0 44 -10 50 -35 4 -19 5 -19 6 1 1 30 24 46 55
38 19 -4 30 -18 45 -58 l19 -51 11 45 c7 25 14 51 16 58 6 18 32 15 55 -8 l20
-20 0 20 c0 15 7 20 24 20 28 0 35 -8 38 -44 2 -22 13 -27 13 -6 0 10 64 60
76 60 12 0 39 -30 39 -43 0 -7 -21 -25 -45 -42 -25 -16 -45 -34 -45 -39 0 -5
14 -31 31 -57 35 -55 36 -92 2 -97 -26 -4 -59 39 -49 65 4 10 4 14 0 11 -3 -4
-15 3 -25 15 l-18 22 -1 -30 c0 -39 -13 -58 -35 -53 -26 4 -36 51 -24 115 6
30 8 60 6 66 -2 7 -12 -31 -21 -83 -18 -94 -32 -119 -67 -120 -18 0 -34 54
-22 73 3 5 1 7 -5 3 -6 -3 -16 9 -23 31 -12 37 -13 37 -20 13 -4 -14 -7 -39
-8 -57 -1 -23 -7 -33 -22 -38 -11 -4 -23 -4 -26 -1 -4 3 -12 -3 -20 -14 -18
-26 -53 -27 -53 -1 0 17 -4 18 -34 9 -19 -6 -41 -8 -50 -5 -24 9 -38 54 -37
120 1 56 0 57 -28 57 -16 0 -36 -3 -45 -6 -28 -11 -17 -24 20 -24 33 0 35 -2
32 -27 -2 -22 -11 -30 -38 -39 -30 -10 -36 -17 -40 -50 -7 -49 -16 -64 -40
-64 -26 0 -34 48 -22 125 5 33 7 76 5 96 -3 22 0 39 9 46 16 14 72 21 113 16
17 -2 47 -6 68 -7z"/>
<path d="M898 933 c7 -3 16 -2 19 1 4 3 -2 6 -13 5 -11 0 -14 -3 -6 -6z"/>
<path d="M1386 842 c-3 -5 1 -9 9 -9 8 0 12 4 9 9 -3 4 -7 8 -9 8 -2 0 -6 -4
-9 -8z"/>
<path d="M848 823 c7 -3 16 -2 19 1 4 3 -2 6 -13 5 -11 0 -14 -3 -6 -6z"/>
<path d="M1366 785 c-3 -9 -10 -13 -16 -10 -5 3 -10 -1 -10 -9 0 -23 28 -19
35 5 8 24 0 37 -9 14z"/>
<path d="M952 770 c16 -25 45 -31 81 -15 14 6 20 2 24 -14 3 -11 8 -21 12 -21
15 0 31 26 30 50 0 14 -3 19 -6 13 -3 -9 -26 -13 -67 -13 -35 0 -68 5 -76 13
-9 8 -9 4 2 -13z"/>
<path d="M1110 774 c0 -6 6 -14 13 -16 19 -8 37 2 37 20 0 15 -2 15 -10 2 -5
-8 -10 -10 -10 -4 0 6 -7 11 -15 11 -8 0 -15 -6 -15 -13z"/>
<path d="M1280 781 c0 -5 -9 -13 -20 -16 -11 -3 -20 -13 -20 -21 0 -19 19 -18
26 1 4 8 9 13 13 11 4 -3 8 4 8 15 1 10 0 19 -3 19 -2 0 -4 -4 -4 -9z"/>
<path d="M810 742 c0 -7 -7 -12 -16 -12 -8 0 -12 -5 -8 -11 4 -7 11 -6 22 5 9
8 13 19 9 22 -4 4 -7 2 -7 -4z"/>
<path d="M1462 734 c10 -10 20 -15 24 -12 3 4 -5 12 -18 18 -22 12 -22 12 -6
-6z"/>
<path d="M421 1405 c3 -2 56 -5 119 -6 62 0 119 -3 127 -6 9 -4 13 -30 13 -99
l0 -94 69 0 69 0 4 71 c7 128 22 132 490 127 273 -3 288 -4 315 -24 l28 -21
28 21 c41 30 173 30 214 0 26 -20 28 -26 31 -105 4 -106 -1 -125 -38 -144 -40
-21 -178 -21 -208 1 -20 14 -22 14 -22 0 0 -12 -11 -16 -45 -16 l-45 0 0 45
c0 25 -4 45 -8 45 -4 0 -5 -21 -2 -47 4 -43 8 -48 37 -57 24 -6 38 -5 56 7 14
9 29 12 38 7 15 -9 85 -14 151 -11 23 0 48 10 67 27 31 26 31 27 31 124 0 96
-1 99 -29 123 -49 41 -163 46 -233 11 -25 -13 -31 -12 -55 3 -25 16 -59 18
-373 18 -385 0 -402 -2 -426 -61 -8 -19 -14 -56 -14 -84 l0 -50 -60 0 -60 0 0
89 c0 59 -4 92 -13 99 -12 10 -266 17 -256 7z"/>
<path d="M1025 1330 l-70 -6 73 -2 c42 -1 72 2 72 8 0 6 -1 9 -2 8 -2 -1 -34
-4 -73 -8z"/>
<path d="M1750 1329 c-18 -5 -6 -7 39 -8 35 -1 62 1 60 3 -10 8 -76 12 -99 5z"/>
<path d="M477 1323 c18 -2 50 -2 70 0 21 2 7 4 -32 4 -38 0 -55 -2 -38 -4z"/>
<path d="M1143 1323 c15 -2 37 -2 50 0 12 2 0 4 -28 4 -27 0 -38 -2 -22 -4z"/>
<path d="M1303 1323 c15 -2 37 -2 50 0 12 2 0 4 -28 4 -27 0 -38 -2 -22 -4z"/>
<path d="M1498 1323 c6 -2 18 -2 25 0 6 3 1 5 -13 5 -14 0 -19 -2 -12 -5z"/>
<path d="M575 1304 c-6 -2 -9 -23 -7 -45 3 -28 0 -44 -9 -50 -10 -6 -8 -9 9
-9 20 0 22 5 22 55 0 30 -1 55 -2 54 -2 0 -8 -3 -13 -5z"/>
<path d="M1085 1304 c-6 -2 -9 -23 -7 -45 3 -28 0 -44 -9 -50 -11 -7 -9 -9 7
-9 28 0 44 -19 44 -51 0 -36 -11 -42 -73 -40 -27 0 -48 -2 -45 -5 12 -12 111
-6 119 8 15 23 10 68 -11 85 -14 12 -20 30 -20 60 l0 42 43 4 42 4 -40 0 c-22
1 -45 -1 -50 -3z"/>
<path d="M1190 1307 c-3 -3 -3 -49 0 -103 4 -75 8 -98 20 -101 11 -3 12 -2 3
4 -8 6 -13 44 -15 107 -2 54 -5 95 -8 93z"/>
<path d="M1292 1213 c-1 -70 -6 -103 -14 -106 -10 -4 -10 -6 0 -6 20 -1 23 18
19 120 l-3 94 -2 -102z"/>
<path d="M1798 1299 c29 -9 32 -13 32 -49 l0 -40 -45 0 -45 0 0 39 c0 22 5 42
13 44 7 3 5 6 -5 6 -15 1 -18 -8 -18 -49 l0 -50 55 0 55 0 0 49 c0 42 -3 49
-22 55 -37 10 -56 5 -20 -5z"/>
<path d="M1475 1230 c-23 -5 -13 -8 42 -11 40 -2 69 -1 65 3 -12 11 -75 16
-107 8z"/>
<path d="M1460 1156 c0 -24 -5 -47 -10 -49 -6 -3 -5 -4 2 -3 14 3 29 96 16 96
-4 0 -8 -20 -8 -44z"/>
<path d="M357 1148 c18 -18 37 -22 121 -26 55 -2 102 -1 105 4 3 5 -27 8 -67
6 -54 -3 -85 2 -126 17 l-54 21 21 -22z"/>
<path d="M1874 1156 c-47 -21 -108 -25 -150 -10 -50 17 -64 17 -41 -1 44 -33
167 -30 209 5 27 23 24 24 -18 6z"/>
<path d="M627 1149 c16 -16 81 -29 143 -27 54 1 53 1 -20 9 -41 5 -88 14 -105
19 -22 8 -27 8 -18 -1z"/>
<path d="M875 1151 c-10 -18 18 -24 119 -27 l101 -3 -86 9 c-48 4 -96 13 -107
19 -13 7 -23 7 -27 2z"/>
<path d="M1604 1135 c-18 -14 -18 -14 9 -15 15 0 27 4 27 9 0 18 -17 20 -36 6z"/>
<path d="M840 1127 c0 -8 -6 -18 -12 -20 -8 -3 -6 -6 5 -6 9 -1 17 4 17 9 0 7
6 7 19 0 11 -5 35 -9 53 -9 31 1 30 2 -9 8 -23 4 -48 13 -57 20 -13 11 -16 11
-16 -2z"/>
<path d="M1225 1130 c-4 -6 5 -10 20 -10 15 0 24 4 20 10 -3 6 -12 10 -20 10
-8 0 -17 -4 -20 -10z"/>
<path d="M1395 1130 c-4 -6 5 -10 20 -10 15 0 24 4 20 10 -3 6 -12 10 -20 10
-8 0 -17 -4 -20 -10z"/>
<path d="M600 1115 c-7 -9 -8 -15 -2 -15 6 0 12 5 14 11 3 9 9 9 25 0 12 -6
37 -10 55 -10 32 1 32 2 -7 9 -22 4 -47 10 -56 14 -9 4 -21 1 -29 -9z"/>
<path d="M510 1099 c-20 -5 -15 -7 23 -8 26 -1 47 2 47 7 0 10 -39 11 -70 1z"/>
<path d="M1 1044 c0 -11 3 -14 6 -6 3 7 2 16 -1 19 -3 4 -6 -2 -5 -13z"/>
<path d="M1705 982 c-27 -6 -65 -32 -65 -45 0 -5 8 -3 18 6 21 19 37 22 26 5
-4 -7 -3 -8 5 -4 6 4 9 12 6 17 -8 12 62 12 86 -1 18 -10 28 -59 12 -61 -5 -1
-25 -2 -45 -3 -21 -1 -41 -6 -45 -10 -5 -5 24 -6 62 -2 66 7 72 9 112 52 32
33 50 44 72 44 42 0 78 -19 85 -44 25 -94 -35 -206 -112 -206 -48 0 -71 16
-92 63 -21 45 -19 47 -38 -48 -7 -34 -12 -41 -35 -43 -20 -2 -27 1 -27 13 0
12 -6 15 -19 10 -19 -6 -49 6 -83 34 -22 18 -24 87 -4 136 8 19 11 35 6 35
-26 0 -41 -142 -17 -172 6 -9 30 -23 52 -33 22 -9 48 -21 57 -26 45 -24 71 -7
82 54 l7 37 33 -35 c27 -28 41 -35 71 -35 80 0 143 90 132 186 -7 63 -25 79
-92 79 -51 0 -56 -2 -90 -43 -37 -42 -55 -47 -55 -13 0 35 -58 65 -105 53z"/>
<path d="M1730 948 c-19 -5 -44 -17 -55 -26 -19 -16 -19 -16 -5 2 13 17 13 19
0 15 -22 -8 -50 -69 -50 -112 0 -48 15 -77 40 -77 10 0 22 -5 25 -10 3 -6 17
-7 31 -4 18 5 24 2 24 -11 0 -10 6 -15 17 -13 12 2 21 20 29 54 6 29 14 57 18
63 11 17 26 13 26 -8 0 -11 12 -33 26 -50 68 -81 183 6 169 127 -3 24 -7 47
-9 51 -6 8 -82 4 -98 -5 -7 -4 -8 -3 -4 4 4 7 2 12 -3 12 -6 0 -11 -5 -11 -11
0 -6 -13 -23 -28 -37 -16 -15 -31 -32 -33 -39 -2 -6 -15 -14 -29 -16 -14 -2
-33 -7 -43 -12 -23 -10 -36 3 -17 15 12 8 9 10 -11 10 -22 0 -27 -4 -25 -25 0
-14 4 -25 8 -25 13 0 -3 -28 -19 -34 -37 -15 -57 42 -28 80 13 17 14 16 4 -14
-12 -35 -7 -62 13 -62 9 0 9 3 0 12 -7 7 -12 16 -12 22 0 5 7 1 16 -10 15 -19
15 -19 10 1 -23 88 -11 112 49 101 27 -5 35 -4 35 7 0 25 -23 35 -60 25z m260
-44 c0 -8 -7 -31 -17 -52 -9 -20 -17 -41 -17 -46 -1 -9 -32 -24 -53 -25 -22
-2 -34 34 -22 68 19 55 109 100 109 55z"/>
<path d="M1924 892 c-31 -25 -47 -77 -28 -93 10 -8 18 -9 27 0 8 6 17 9 20 6
4 -3 5 -2 3 1 -3 3 4 23 15 42 10 20 19 42 19 49 0 18 -31 16 -56 -5z m46 3
c0 -14 -30 -62 -49 -79 -21 -19 -21 -19 -21 8 0 15 11 38 25 51 22 23 45 33
45 20z"/>
<path d="M1728 903 c7 -3 16 -2 19 1 4 3 -2 6 -13 5 -11 0 -14 -3 -6 -6z"/>
<path d="M1094 306 c-11 -28 4 -48 33 -44 22 2 28 8 28 28 0 20 -6 26 -28 28
-18 2 -29 -2 -33 -12z"/>
</g>
</svg>
